<svg width="244" height="244" viewBox="0 0 244 244" fill="none" xmlns="http://www.w3.org/2000/svg">
<g filter="url(#filter0_i_136_405)">
<path d="M244 209C244 228.33 228.33 244 209 244H35C15.67 244 0 228.33 0 209V35C0 15.67 15.67 0 35 0H209C228.33 0 244 15.67 244 35V209ZM122.123 146.604C112.332 146.604 100.116 151 90.4932 166.548C77.7827 187.085 65.8783 189.543 55.8984 196.909L55.6833 197.068C55.5517 197.165 55.5368 197.356 55.652 197.472C55.7562 197.578 55.9262 197.578 56.0314 197.474L56.1953 197.312L55.8604 197.645C55.8496 197.655 55.8496 197.673 55.8604 197.684C55.8729 197.696 55.8919 197.715 55.916 197.738C55.9646 197.786 56.0368 197.856 56.1318 197.947C56.3224 198.129 56.6067 198.394 56.9814 198.731C57.7314 199.406 58.8471 200.368 60.3154 201.521C63.252 203.826 67.6012 206.9 73.2598 209.979C84.5774 216.139 101.14 222.328 122.12 222.446C143.104 222.564 159.728 216.315 171.105 210.037C176.794 206.898 181.172 203.75 184.131 201.386C185.61 200.204 186.736 199.216 187.492 198.523C187.87 198.177 188.156 197.904 188.349 197.717C188.444 197.624 188.517 197.551 188.566 197.502C188.591 197.478 188.609 197.458 188.622 197.445L188.64 197.427C188.641 197.427 188.641 197.427 188.641 197.427C188.642 197.426 188.642 197.425 188.641 197.424C188.634 197.416 188.585 197.368 188.284 197.076L188.461 197.248C188.561 197.346 188.722 197.344 188.819 197.243C188.919 197.141 188.914 196.976 188.809 196.879L188.621 196.708C186.76 195.007 184.431 193.551 181.804 192.015C179.165 190.472 176.218 188.843 173.058 186.775C166.752 182.65 159.616 176.789 152.676 166.531C142.73 151.83 131.95 146.604 122.123 146.604ZM121.762 161.181C134.201 161.181 144.285 171.265 144.285 183.704C144.285 196.143 134.201 206.226 121.762 206.227C109.323 206.226 99.2395 196.143 99.2393 183.704C99.2393 171.265 109.323 161.181 121.762 161.181ZM121.762 171.504C115.024 171.504 109.563 176.967 109.562 183.704C109.563 190.442 115.024 195.904 121.762 195.904C128.499 195.904 133.962 190.442 133.962 183.704C133.962 176.966 128.499 171.504 121.762 171.504ZM196.708 55.8379C195.007 57.6991 193.551 60.0283 192.015 62.6553C190.472 65.2939 188.843 68.2405 186.775 71.4014C182.65 77.7073 176.789 84.843 166.531 91.7832C151.83 101.729 146.604 112.509 146.604 122.336C146.604 132.127 151 144.343 166.548 153.966C187.085 166.676 189.543 178.581 196.909 188.561L197.068 188.776C197.165 188.907 197.356 188.922 197.472 188.807C197.578 188.703 197.578 188.533 197.474 188.428L197.312 188.264L197.645 188.599C197.655 188.609 197.673 188.609 197.684 188.599C197.696 188.586 197.715 188.567 197.738 188.543C197.786 188.494 197.857 188.422 197.947 188.327C198.129 188.137 198.394 187.852 198.731 187.478C199.406 186.728 200.368 185.612 201.521 184.144C203.826 181.207 206.9 176.858 209.979 171.199C216.139 159.882 222.328 143.319 222.446 122.339C222.564 101.355 216.315 84.7307 210.037 73.3535C206.898 67.6654 203.75 63.2867 201.386 60.3281C200.203 58.8489 199.216 57.7231 198.523 56.9668C198.177 56.5889 197.904 56.3026 197.717 56.1104C197.624 56.0145 197.551 55.9416 197.502 55.8926C197.478 55.8683 197.458 55.8495 197.445 55.8369L197.427 55.8186C197.427 55.8184 197.427 55.8183 197.427 55.8181C197.426 55.8172 197.425 55.8169 197.424 55.8176C197.417 55.8249 197.37 55.8724 197.076 56.1748L197.248 55.998C197.346 55.8977 197.344 55.7373 197.243 55.6396C197.141 55.5398 196.976 55.5446 196.879 55.6504L196.708 55.8379ZM46.2952 55.652C46.1899 55.7562 46.1891 55.9262 46.2935 56.0314L46.4561 56.1953L46.123 55.8604C46.1122 55.8496 46.0948 55.8496 46.084 55.8604C46.0715 55.8729 46.0529 55.892 46.0293 55.916C45.9816 55.9646 45.911 56.0369 45.8203 56.1318C45.6383 56.3224 45.3731 56.6068 45.0361 56.9814C44.3617 57.7314 43.3999 58.8472 42.2471 60.3154C39.9414 63.252 36.8679 67.6013 33.7881 73.2598C27.6282 84.5774 21.4392 101.14 21.3213 122.12C21.2035 143.104 27.4524 159.728 33.7305 171.105C36.8693 176.794 40.0172 181.172 42.3818 184.131C43.5641 185.61 44.5512 186.736 45.2441 187.492C45.5904 187.87 45.8637 188.156 46.0508 188.349C46.1441 188.445 46.2166 188.517 46.2656 188.566C46.29 188.591 46.3095 188.609 46.3223 188.622L46.3406 188.64C46.3408 188.641 46.3409 188.641 46.3409 188.641C46.3414 188.642 46.3425 188.642 46.3432 188.641C46.3522 188.633 46.403 188.581 46.6914 188.284L46.5195 188.461C46.4219 188.561 46.4241 188.722 46.5243 188.819C46.6269 188.919 46.7919 188.914 46.8884 188.809L47.0596 188.621C48.7605 186.76 50.2168 184.431 51.7529 181.804C53.2959 179.165 54.9243 176.218 56.9922 173.058C61.1177 166.752 66.9784 159.616 77.2363 152.676C91.9369 142.73 97.1638 131.95 97.1641 122.123C97.1639 112.332 92.7675 100.116 77.2197 90.4932C56.6825 77.7827 54.2243 65.8783 46.8584 55.8984L46.6998 55.6833C46.6027 55.5517 46.4114 55.5368 46.2952 55.652ZM183.704 100.175C196.143 100.175 206.226 110.259 206.227 122.698C206.226 135.137 196.143 145.22 183.704 145.221C171.265 145.221 161.181 135.137 161.181 122.698C161.181 110.259 171.265 100.175 183.704 100.175ZM60.0635 99.2393C72.5022 99.2396 82.5867 109.324 82.5869 121.763C82.5865 134.201 72.5021 144.285 60.0635 144.285C47.6248 144.285 37.5414 134.201 37.541 121.763C37.5412 109.324 47.6246 99.2395 60.0635 99.2393ZM183.704 110.498C176.966 110.498 171.504 115.961 171.504 122.698C171.504 129.436 176.967 134.897 183.704 134.897C190.441 134.897 195.903 129.436 195.903 122.698C195.903 115.961 190.442 110.498 183.704 110.498ZM60.0635 109.562C53.326 109.563 47.8647 115.024 47.8643 121.762C47.8645 128.499 53.3259 133.962 60.0635 133.962C66.8009 133.962 72.2635 128.499 72.2637 121.762C72.2632 115.024 66.8008 109.563 60.0635 109.562ZM122.237 21.3184C101.253 21.2006 84.6292 27.4495 73.252 33.7275C67.5637 36.8664 63.1852 40.0142 60.2266 42.3789C58.7473 43.5612 57.6216 44.5482 56.8652 45.2412C56.4873 45.5875 56.2011 45.8607 56.0088 46.0479C55.9128 46.1412 55.8401 46.2136 55.791 46.2627C55.7666 46.2871 55.748 46.3065 55.7354 46.3193L55.717 46.3377C55.7169 46.3378 55.7167 46.3379 55.7166 46.338C55.7157 46.3384 55.7154 46.3395 55.7161 46.3403C55.7239 46.3484 55.7731 46.3968 56.0732 46.6885L55.8965 46.5165C55.7962 46.4189 55.6357 46.4211 55.5381 46.5214C55.4382 46.624 55.4431 46.7889 55.5488 46.8855L55.7363 47.0566C57.5975 48.7576 59.9268 50.2139 62.5537 51.75C65.1923 53.2929 68.1391 54.9214 71.2998 56.9893C77.6056 61.1148 84.7416 66.9757 91.6816 77.2334C101.628 91.9343 112.408 97.1609 122.234 97.1611C132.026 97.161 144.242 92.765 153.864 77.2168C166.575 56.6796 178.479 54.2215 188.459 46.8555L188.674 46.6969C188.806 46.5998 188.821 46.4085 188.705 46.2922C188.601 46.187 188.431 46.1862 188.326 46.2905L188.162 46.4531L188.497 46.1201C188.508 46.1093 188.508 46.0918 188.497 46.0811C188.485 46.0686 188.465 46.0499 188.441 46.0264C188.393 45.9786 188.32 45.9079 188.226 45.8174C188.035 45.6354 187.751 45.3701 187.376 45.0332C186.626 44.3587 185.51 43.3968 184.042 42.2441C181.105 39.9384 176.756 36.8648 171.098 33.7852C159.78 27.6254 143.217 21.4363 122.237 21.3184ZM122.596 37.5391C135.034 37.5395 145.118 47.6228 145.118 60.0615C145.118 72.5002 135.034 82.5845 122.596 82.585C110.157 82.5848 100.073 72.5004 100.072 60.0615C100.072 47.6226 110.157 37.5392 122.596 37.5391ZM122.596 47.8623C115.858 47.8625 110.396 53.3247 110.396 60.0625C110.396 66.7999 115.858 72.2616 122.596 72.2617C129.333 72.2613 134.794 66.7997 134.795 60.0625C134.795 53.3249 129.333 47.8627 122.596 47.8623Z" fill="url(#paint0_linear_136_405)"/>
</g>
<defs>
<filter id="filter0_i_136_405" x="0" y="0" width="248" height="244" filterUnits="userSpaceOnUse" color-interpolation-filters="sRGB">
<feFlood flood-opacity="0" result="BackgroundImageFix"/>
<feBlend mode="normal" in="SourceGraphic" in2="BackgroundImageFix" result="shape"/>
<feColorMatrix in="SourceAlpha" type="matrix" values="0 0 0 0 0 0 0 0 0 0 0 0 0 0 0 0 0 0 127 0" result="hardAlpha"/>
<feOffset dx="4"/>
<feGaussianBlur stdDeviation="2"/>
<feComposite in2="hardAlpha" operator="arithmetic" k2="-1" k3="1"/>
<feColorMatrix type="matrix" values="0 0 0 0 0 0 0 0 0 0 0 0 0 0 0 0 0 0 0.25 0"/>
<feBlend mode="normal" in2="shape" result="effect1_innerShadow_136_405"/>
</filter>
<linearGradient id="paint0_linear_136_405" x1="2.5" y1="58.8511" x2="413.5" y2="191.351" gradientUnits="userSpaceOnUse">
<stop stop-color="#FFA100"/>
<stop offset="1" stop-color="#FF6B00"/>
</linearGradient>
</defs>
</svg>
